<svg id="Layer_1" data-name="Layer 1" xmlns="http://www.w3.org/2000/svg" viewBox="0 0 100 45.88"><defs><style>.cls-1{fill:#c09451;}.cls-2{fill:#002742;}</style></defs><path class="cls-1" d="M986.35,991.12a14.07,14.07,0,0,0,11.3,13.79,13.77,13.77,0,0,0,2.5.27V977.06a13.77,13.77,0,0,0-2.5.27A14.07,14.07,0,0,0,986.35,991.12Zm11.3,11.24a11.58,11.58,0,0,1,0-22.48Z" transform="translate(-950 -977.06)"/><path class="cls-1" d="M1008.59,999.3a11.5,11.5,0,0,1-5.42,3.06V979.88a11.61,11.61,0,0,1,8.24,7.64l2.24-1.16a14.08,14.08,0,0,0-10.48-9,13.66,13.66,0,0,0-2.49-.27v28.12a13.66,13.66,0,0,0,2.49-.27,14.06,14.06,0,0,0,10.47-9l-2.25-1.12A11.53,11.53,0,0,1,1008.59,999.3Z" transform="translate(-950 -977.06)"/><path class="cls-2" d="M954.19,1009.5a5.26,5.26,0,1,1,0,10.52H950V1009.5Zm-3.56,9.9h3.56a4.65,4.65,0,1,0,0-9.29h-3.54Z" transform="translate(-950 -977.06)"/><path class="cls-2" d="M969.23,1016.27h-6.85a3.15,3.15,0,0,0,3.23,3.19,3.54,3.54,0,0,0,2.65-1.08l.36.41a4.07,4.07,0,0,1-3,1.25,3.94,3.94,0,0,1,0-7.88C967.89,1012.16,969.27,1013.85,969.23,1016.27Zm-.58-.55a3,3,0,0,0-3.07-3,3.11,3.11,0,0,0-3.19,3Z" transform="translate(-950 -977.06)"/><path class="cls-2" d="M976.32,1012.78l-.27.51a3.71,3.71,0,0,0-2-.56c-1.1,0-2,.43-2,1.36,0,2.11,4.58,1.07,4.58,3.84,0,1.46-1.31,2.11-2.73,2.11a4.17,4.17,0,0,1-2.87-1.09l.28-.48a3.87,3.87,0,0,0,2.62,1c1.1,0,2-.43,2.1-1.43.06-2.21-4.58-1.2-4.58-3.9,0-1.37,1.19-2,2.57-2A4.24,4.24,0,0,1,976.32,1012.78Z" transform="translate(-950 -977.06)"/><path class="cls-2" d="M980.4,1009.92a.53.53,0,1,1-1.06,0,.53.53,0,1,1,1.06,0Zm-.85,10.1v-7.84h.62V1020Z" transform="translate(-950 -977.06)"/><path class="cls-2" d="M990.67,1019.16a3.53,3.53,0,0,1-3.8,3.78,4.69,4.69,0,0,1-3.18-1.28l.34-.47a4,4,0,0,0,2.83,1.16,3,3,0,0,0,3.2-3.19v-1.47a3.34,3.34,0,0,1-3.2,2,3.77,3.77,0,0,1,0-7.54,3.37,3.37,0,0,1,3.22,2v-2h.61Zm-.61-3.2a3.12,3.12,0,1,0-6.24,0,3.12,3.12,0,1,0,6.24,0Z" transform="translate(-950 -977.06)"/><path class="cls-2" d="M1001.22,1015.23V1020h-.63v-4.67a2.35,2.35,0,0,0-2.56-2.56,3,3,0,0,0-3.06,3V1020h-.63v-7.84H995v2a3.25,3.25,0,0,1,3.21-2A2.81,2.81,0,0,1,1001.22,1015.23Z" transform="translate(-950 -977.06)"/><path class="cls-2" d="M1011.47,1016.27h-6.85a3.16,3.16,0,0,0,3.24,3.19,3.54,3.54,0,0,0,2.65-1.08l.36.41a4.07,4.07,0,0,1-3,1.25,3.94,3.94,0,0,1,0-7.88C1010.13,1012.16,1011.52,1013.85,1011.47,1016.27Zm-.57-.55a3,3,0,0,0-3.07-3,3.11,3.11,0,0,0-3.19,3Z" transform="translate(-950 -977.06)"/><path class="cls-2" d="M1015.1,1014.15a3,3,0,0,1,2.92-2v.65c-1.73,0-2.78,1.14-2.92,3V1020h-.63v-7.84h.63Z" transform="translate(-950 -977.06)"/><path class="cls-2" d="M1029.1,1011.15l-1.38,1.69a3.8,3.8,0,0,0-2.74-1.37,3.25,3.25,0,0,0,0,6.49,4.05,4.05,0,0,0,2.74-1.24l1.4,1.52a6.17,6.17,0,0,1-4.26,1.89,5.36,5.36,0,1,1,.09-10.72A6,6,0,0,1,1029.1,1011.15Z" transform="translate(-950 -977.06)"/><path class="cls-2" d="M1035.83,1011.5V1020h-2.38v-8.52h-3.2v-2h8.8v2Z" transform="translate(-950 -977.06)"/><path class="cls-2" d="M1046.16,1020h-2.38v-3.34l-3.9-7.2h2.4l2.69,4.73,2.64-4.73H1050l-3.84,7.14Z" transform="translate(-950 -977.06)"/></svg>